<?xml version="1.0" encoding="UTF-8" standalone="no"?>
<!-- Created with Inkscape (http://www.inkscape.org/) -->

<svg
   width="210mm"
   height="297mm"
   viewBox="0 0 210 297"
   version="1.1"
   id="svg1"
   xml:space="preserve"
   inkscape:export-filename="engrenage.svg"
   inkscape:export-xdpi="96"
   inkscape:export-ydpi="96"
   xmlns:inkscape="http://www.inkscape.org/namespaces/inkscape"
   xmlns:sodipodi="http://sodipodi.sourceforge.net/DTD/sodipodi-0.dtd"
   xmlns="http://www.w3.org/2000/svg"
   xmlns:svg="http://www.w3.org/2000/svg"><sodipodi:namedview
     id="namedview1"
     pagecolor="#ffffff"
     bordercolor="#000000"
     borderopacity="0.25"
     inkscape:showpageshadow="2"
     inkscape:pageopacity="0.0"
     inkscape:pagecheckerboard="0"
     inkscape:deskcolor="#d1d1d1"
     inkscape:document-units="mm"
     showgrid="true"><inkscape:grid
       id="grid2"
       units="mm"
       originx="0"
       originy="0"
       spacingx="0.99999998"
       spacingy="1"
       empcolor="#0099e5"
       empopacity="0.30196078"
       color="#0099e5"
       opacity="0.14901961"
       empspacing="5"
       dotted="false"
       gridanglex="30"
       gridanglez="30"
       visible="true" /></sodipodi:namedview><defs
     id="defs1" /><g
     inkscape:label="Calque 1"
     inkscape:groupmode="layer"
     id="layer1"><path
       style="fill:#008080"
       d="m 105.05196,199.84138 c -2.97912,-0.15525 -4.86656,-0.43486 -8.70135,-1.28907 -0.88216,-0.1965 -2.90497,-0.8225 -4.39375,-1.35973 -0.89618,-0.32339 -1.23057,-0.45426 -1.93842,-0.75867 -0.16584,-0.0713 -0.37906,-0.16287 -0.47383,-0.20346 -1.4341,-0.61411 -4.27988,-2.11713 -6.17781,-3.26285 -1.26885,-0.76597 -3.87026,-2.70548 -5.44657,-4.06077 -1.35897,-1.16842 -3.62515,-3.46718 -4.61525,-4.68162 -0.11846,-0.14529 -0.33377,-0.40165 -0.47846,-0.56968 -1.12704,-1.30881 -3.273957,-4.37918 -4.129248,-5.90537 -0.132771,-0.23692 -0.353781,-0.6246 -0.491134,-0.86152 -0.786143,-1.35601 -2.098053,-4.21205 -2.888862,-6.28909 -0.07216,-0.18953 -0.162861,-0.42214 -0.201552,-0.51691 -0.109074,-0.26716 -0.663844,-2.02687 -0.76049,-2.41225 -0.04753,-0.18954 -0.123948,-0.4803 -0.169813,-0.64614 -0.937679,-3.39054 -1.432299,-6.59718 -1.556668,-10.09193 -0.126134,-3.54433 0.06842,-6.33123 0.690797,-9.89531 0.136527,-0.78183 0.285236,-1.5572 0.330466,-1.72304 0.04523,-0.16584 0.163071,-0.63106 0.26187,-1.03382 0.0988,-0.40276 0.19394,-0.79045 0.211426,-0.86152 0.360698,-1.46618 1.412424,-4.4926 2.095731,-6.03063 0.846534,-1.90544 1.846416,-3.85279 2.676238,-5.21219 0.26032,-0.42645 0.515784,-0.85344 0.567698,-0.94885 0.596778,-1.09684 3.371081,-4.73515 4.827541,-6.33099 1.97098,-2.15959 5.35844,-5.11227 7.54349,-6.57526 0.11846,-0.0793 0.6509,-0.43543 1.1832,-0.79137 1.14963,-0.76873 3.05989,-1.84854 4.68911,-2.6506 0.64737,-0.3187 1.19966,-0.57945 1.2273,-0.57945 0.0276,0 0.34403,-0.13569 0.70307,-0.30153 0.35903,-0.16585 0.70036,-0.30154 0.7585,-0.30154 0.0581,0 0.14253,-0.0338 0.18755,-0.0751 0.15446,-0.14174 3.31783,-1.26097 4.15249,-1.46919 0.1777,-0.0443 0.71078,-0.18433 1.18462,-0.31109 1.73616,-0.46448 2.71949,-0.66075 4.91066,-0.98013 2.19766,-0.32032 2.48489,-0.34997 4.3076,-0.44466 3.55648,-0.18477 7.82297,0.13481 11.079,0.82986 0.58763,0.12543 1.2041,0.25663 1.36995,0.29153 0.66594,0.14015 2.44208,0.64513 3.68393,1.04739 3.24275,1.05038 6.38455,2.48037 9.1527,4.16585 0.70938,0.43193 1.83688,1.15989 2.1088,1.36153 0.0484,0.0359 0.49514,0.35441 0.99267,0.70776 1.2293,0.87308 1.75505,1.28384 3.01531,2.35579 1.19956,1.02032 3.62797,3.41618 4.46935,4.40943 0.83035,0.98022 0.86702,1.02492 1.33851,1.63161 0.24162,0.31089 0.63913,0.81806 0.88338,1.12705 0.55437,0.70131 1.72491,2.43748 2.40929,3.5735 0.46203,0.76694 0.71431,1.21739 1.47163,2.62763 0.16976,0.31612 1.00254,2.08588 1.31754,2.79994 0.37767,0.85614 0.49806,1.14873 0.79756,1.93842 0.37804,0.99675 0.95989,2.7288 1.09008,3.24494 0.0458,0.1817 0.12678,0.48544 0.17989,0.67497 0.34316,1.22471 0.9764,4.20577 1.11632,5.25527 0.39974,2.99816 0.46113,3.88504 0.46214,6.67677 9.8e-4,2.69803 -0.076,3.94035 -0.36831,5.94448 -0.0449,0.30799 -0.10563,0.75383 -0.1349,0.99074 -0.10526,0.85189 -0.56208,3.13895 -0.73136,3.66146 -0.0384,0.11846 -0.13536,0.50614 -0.21551,0.86152 -0.49199,2.18123 -1.80698,5.67944 -3.14133,8.35673 -1.7569,3.5251 -3.60521,6.32883 -6.16285,9.34848 -0.84402,0.99649 -3.28828,3.51916 -3.96543,4.09265 -0.14081,0.11925 -0.62431,0.5292 -1.07445,0.91099 -1.97332,1.67368 -4.7065,3.59547 -6.6337,4.66437 -0.16584,0.092 -0.51476,0.28527 -0.77536,0.42953 -0.65664,0.36347 -3.06636,1.57504 -3.13265,1.57504 -0.0298,0 -0.348,0.13569 -0.70704,0.30154 -0.35904,0.16584 -0.67336,0.30153 -0.6985,0.30153 -0.0251,0 -0.5166,0.18734 -1.09214,0.41632 -0.57555,0.22897 -1.39536,0.52262 -1.82181,0.65256 -0.42646,0.12994 -0.85291,0.26669 -0.94767,0.30391 -0.54997,0.21595 -2.57944,0.73471 -3.91992,1.00197 -2.62113,0.5226 -4.59175,0.77243 -7.10753,0.90108 -1.80544,0.0923 -2.47895,0.091 -4.39374,-0.009 z m 5.6686,-17.9431 c 0.41418,-0.17306 0.77564,-0.63795 1.21902,-1.56787 0.39977,-0.83845 1.51173,-3.56473 1.51272,-3.70884 2.9e-4,-0.0427 0.0504,-0.17446 0.1113,-0.29292 0.0609,-0.11846 0.21977,-0.51605 0.35299,-0.88354 0.16902,-0.46624 0.31515,-0.72008 0.48353,-0.83998 0.13271,-0.0945 0.27649,-0.17182 0.3195,-0.17182 0.043,0 0.23542,-0.076 0.42756,-0.16878 1.16213,-0.56149 1.45344,-0.59566 2.24922,-0.26388 0.36547,0.15238 0.83895,0.34976 1.05218,0.43862 1.21129,0.50482 3.10483,1.23364 3.99804,1.53886 1.34515,0.45964 1.75474,0.46694 2.29104,0.0408 0.47289,-0.37573 4.13631,-3.97643 4.3365,-4.26224 0.0789,-0.11261 0.1434,-0.3187 0.1434,-0.45799 0,-0.27265 -0.20775,-1.04311 -0.40291,-1.49422 -0.0662,-0.15298 -0.21549,-0.53095 -0.33179,-0.83994 -0.1163,-0.30898 -0.24731,-0.62965 -0.29112,-0.7126 -0.0438,-0.0829 -0.13729,-0.28649 -0.20772,-0.45233 -0.0704,-0.16585 -0.32939,-0.72799 -0.57546,-1.24921 -0.24607,-0.52122 -0.59955,-1.28404 -0.78551,-1.69517 l -0.3381,-0.7475 0.20759,-0.45863 c 0.11417,-0.25224 0.29276,-0.67185 0.39686,-0.93246 0.3182,-0.7966 0.39562,-0.89551 0.83509,-1.06693 0.22889,-0.0893 0.80316,-0.31695 1.27614,-0.50593 0.47298,-0.18897 0.89943,-0.35247 0.94767,-0.36332 0.0482,-0.0108 0.22301,-0.0802 0.38838,-0.15405 0.16538,-0.0739 0.33014,-0.11611 0.36615,-0.0939 0.036,0.0223 0.0655,0.007 0.0655,-0.0335 0,-0.0407 0.14538,-0.12447 0.32307,-0.18623 0.6594,-0.2292 2.72814,-1.23558 2.95748,-1.43872 0.0748,-0.0663 0.17541,-0.12048 0.22357,-0.12048 0.0482,0 0.1614,-0.0816 0.25167,-0.18125 0.15448,-0.1706 0.1656,-0.37749 0.18942,-3.52434 l 0.0253,-3.3431 -0.28376,-0.2689 c -0.30212,-0.2863 -1.677,-0.99593 -2.58099,-1.33215 -0.58077,-0.216 -2.24033,-0.84879 -2.74265,-1.04577 -0.16584,-0.065 -0.61168,-0.22514 -0.99075,-0.35579 -0.80113,-0.27613 -0.99264,-0.43903 -1.20252,-1.0229 -0.0844,-0.23489 -0.25034,-0.64031 -0.36866,-0.90092 -0.11833,-0.26061 -0.21819,-0.57075 -0.22191,-0.68921 -0.004,-0.11846 0.189,-0.66122 0.42828,-1.20613 0.23928,-0.54491 0.58086,-1.33966 0.75906,-1.76611 0.17821,-0.42645 0.39272,-0.93044 0.4767,-1.11998 0.34083,-0.76923 0.79978,-2.09804 0.91426,-2.64707 0.19804,-0.9498 0.33046,-0.77574 -3.17608,-4.17464 -1.26132,-1.2226 -1.376,-1.31197 -1.75677,-1.36907 -0.52901,-0.0793 -1.23925,0.10009 -2.5722,0.6498 -0.0948,0.0391 -0.38553,0.15695 -0.64614,0.26194 -0.26061,0.10498 -0.6483,0.26617 -0.86152,0.3582 -0.45522,0.19648 -0.70293,0.30092 -0.96921,0.40864 -0.10661,0.0431 -0.52337,0.2328 -0.92613,0.42149 -1.50904,0.70697 -1.45948,0.69407 -1.91396,0.49803 -0.1556,-0.0671 -0.42446,-0.18343 -0.59747,-0.25846 -0.173,-0.075 -0.33662,-0.13641 -0.36359,-0.13641 -0.14171,0 -0.9882,-0.44242 -1.0263,-0.5364 -1.95109,-4.81252 -2.93893,-6.81112 -3.51444,-7.11042 -0.15936,-0.0829 -0.97633,-0.10324 -3.45624,-0.0862 l -3.24755,0.0224 -0.31458,0.30153 c -0.38955,0.37339 -1.11066,1.8378 -1.88784,3.83376 -0.31365,0.80552 -0.60755,1.54212 -0.65312,1.63689 -0.0456,0.0948 -0.16095,0.40284 -0.25641,0.68461 -0.28266,0.83432 -0.39233,0.93228 -1.54962,1.38426 -0.21323,0.0833 -0.50985,0.20429 -0.65916,0.26893 -0.39931,0.17287 -0.62714,0.14705 -1.33275,-0.15105 -0.34965,-0.14772 -0.71326,-0.30008 -0.80803,-0.33857 -0.0948,-0.0385 -0.40491,-0.16662 -0.68922,-0.28471 -2.51275,-1.04373 -4.44855,-1.6927 -5.04911,-1.6927 -0.48889,0 -0.44214,-0.0352 -2.05736,1.55074 -0.55496,0.54491 -1.44209,1.40469 -1.9714,1.91062 -1.1342,1.0841 -1.27977,1.34273 -1.12514,1.99906 0.20214,0.85799 1.13147,3.0789 2.45568,5.86856 0.17994,0.37906 0.32026,0.7782 0.31182,0.88696 -0.0169,0.21829 -0.66787,1.84487 -0.85901,2.14653 -0.0664,0.10477 -0.20446,0.21381 -0.30683,0.24233 -0.17725,0.0494 -0.33113,0.10886 -0.76766,0.29676 -0.10662,0.0459 -0.60091,0.24096 -1.09844,0.43348 -0.49753,0.19252 -0.98213,0.38566 -1.0769,0.42919 -0.0948,0.0435 -0.52122,0.21999 -0.94767,0.3921 -1.13578,0.45841 -2.62614,1.21001 -2.97224,1.49894 l -0.30153,0.25172 -0.0431,2.82778 c -0.0536,3.51769 -0.0337,3.81345 0.27871,4.13939 0.43654,0.4555 1.56395,0.96941 4.71276,2.14822 1.21122,0.45344 2.2737,0.86208 2.36108,0.90808 0.0874,0.046 0.23747,0.26448 0.33353,0.4855 0.0961,0.22102 0.26127,0.59569 0.36712,0.83261 0.44958,1.00627 0.45005,0.96823 -0.0253,2.04549 -1.95364,4.4272 -2.47459,5.96368 -2.22207,6.55373 0.17891,0.41805 4.19925,4.36671 4.71331,4.62929 0.28589,0.14602 0.35538,0.14893 0.88933,0.0372 0.71786,-0.15019 3.77533,-1.38003 6.18255,-2.48688 0.26942,-0.12388 0.52763,-0.22523 0.5738,-0.22523 0.12229,0 1.90751,0.6962 2.20332,0.85924 0.18878,0.10406 0.32176,0.31 0.53228,0.82432 1.07516,2.62671 1.40639,3.40024 1.88746,4.40785 0.59688,1.25013 1.00168,1.87382 1.33338,2.05435 0.31447,0.17115 6.25321,0.17866 6.66064,0.008 z m -4.67786,-17.80137 c -0.54578,-0.0722 -1.19887,-0.22903 -1.80919,-0.43433 -2.22454,-0.7483 -4.30645,-2.60738 -5.24544,-4.68403 -1.44713,-3.2004 -1.05297,-6.69159 1.06055,-9.39372 1.9718,-2.52093 5.15729,-3.80295 8.49852,-3.42031 0.91308,0.10457 2.11962,0.47003 3.0187,0.91437 2.3674,1.17 4.08863,3.33848 4.78777,6.03183 0.22733,0.87575 0.22219,3.18933 -0.009,4.09221 -0.28069,1.09577 -1.10736,2.89173 -1.28151,2.7841 -0.0512,-0.0316 -0.0604,-0.0106 -0.0224,0.0509 0.0398,0.0643 -0.11014,0.31041 -0.38859,0.63791 -1.45954,1.71669 -2.91521,2.66453 -4.92371,3.20598 -0.89913,0.24239 -2.68992,0.34692 -3.6856,0.21512 z"
       id="path2" /></g></svg>
