<?xml version="1.0" encoding="UTF-8" standalone="no"?>
<!-- Created with Inkscape (http://www.inkscape.org/) -->

<svg
   width="210mm"
   height="297mm"
   viewBox="0 0 210 297"
   version="1.1"
   id="svg1"
   xml:space="preserve"
   inkscape:export-filename="valhome-Emmanuel\valhome-EmmanuelV2\position.svg"
   inkscape:export-xdpi="96"
   inkscape:export-ydpi="96"
   inkscape:version="1.3.2 (091e20e, 2023-11-25, custom)"
   sodipodi:docname="dessin.svg"
   xmlns:inkscape="http://www.inkscape.org/namespaces/inkscape"
   xmlns:sodipodi="http://sodipodi.sourceforge.net/DTD/sodipodi-0.dtd"
   xmlns="http://www.w3.org/2000/svg"
   xmlns:svg="http://www.w3.org/2000/svg"><sodipodi:namedview
     id="namedview1"
     pagecolor="#ffffff"
     bordercolor="#000000"
     borderopacity="0.25"
     inkscape:showpageshadow="2"
     inkscape:pageopacity="0.0"
     inkscape:pagecheckerboard="0"
     inkscape:deskcolor="#d1d1d1"
     inkscape:document-units="mm"
     showgrid="false"
     inkscape:export-bgcolor="#ffffff00"
     inkscape:zoom="0.76662259"
     inkscape:cx="261.53677"
     inkscape:cy="600.6867"
     inkscape:window-width="2560"
     inkscape:window-height="1494"
     inkscape:window-x="2509"
     inkscape:window-y="-11"
     inkscape:window-maximized="1"
     inkscape:current-layer="layer1"><inkscape:grid
       id="grid2"
       units="mm"
       originx="0"
       originy="0"
       spacingx="0.99999998"
       spacingy="1"
       empcolor="#0099e5"
       empopacity="0.30196078"
       color="#0099e5"
       opacity="0.14901961"
       empspacing="5"
       dotted="false"
       gridanglex="30"
       gridanglez="30"
       visible="false" /></sodipodi:namedview><defs
     id="defs1" /><g
     inkscape:label="Calque 1"
     inkscape:groupmode="layer"
     id="layer1"><path
       style="fill:#ffffff"
       d="m 100.48959,214.18403 c -15.040012,-1.90097 -28.661201,-8.60509 -39.49475,-19.43863 -5.765547,-5.76554 -9.358132,-10.78264 -12.980586,-18.12758 -3.487562,-7.07144 -5.813362,-15.25221 -6.614216,-23.26485 -0.394129,-3.94332 -0.179561,-12.47837 0.409534,-16.29036 2.338878,-15.13468 9.242124,-28.41208 20.290607,-39.026042 9.883603,-9.494896 22.13225,-15.587675 36.20454,-18.00903 3.381961,-0.581918 14.055321,-0.817947 17.756011,-0.392654 15.66788,1.800594 29.56426,8.462617 40.59185,19.460017 5.40381,5.389009 9.50296,11.153499 12.9769,18.248929 4.69343,9.58619 6.80049,18.71231 6.81298,29.50836 0.008,7.17492 -0.73819,12.6268 -2.60291,19.00976 -6.52211,22.3254 -24.03303,39.7548 -46.43067,46.2145 -6.03453,1.74042 -10.096,2.29783 -17.4625,2.39661 -4.50918,0.0605 -7.38768,-0.0275 -9.45679,-0.28903 z m 20.45479,-39.34815 c 12.64565,-16.47454 14.20481,-18.65317 16.05043,-22.42744 7.07401,-14.46624 4.91257,-29.60143 -5.6458,-39.53399 -6.52355,-6.13689 -14.79548,-9.18406 -23.89721,-8.80312 -8.64347,0.36175 -16.235338,3.71598 -22.191098,9.80441 -5.792113,5.92115 -8.651815,13.05647 -8.651815,21.5874 0,5.74653 1.337964,11.37938 4.005714,16.8641 1.90826,3.92326 3.476996,6.12973 15.294724,21.51245 12.903835,16.79647 12.376845,16.13958 12.948075,16.13958 0.30028,0 4.54978,-5.32406 12.08698,-15.14339 z m -23.491019,-2.3723 c -12.648263,-16.48682 -12.980346,-16.9508 -14.904233,-20.82406 -4.170536,-8.39633 -5.056817,-17.52178 -2.472826,-25.46107 3.324071,-10.21318 13.009094,-18.20918 24.002558,-19.81664 3.4612,-0.50609 9.38353,-0.20833 12.58478,0.63274 3.32825,0.87444 7.89377,3.07604 10.61295,5.11783 12.81631,9.62353 15.40695,26.26202 6.53046,41.9421 -0.93202,1.64638 -5.64072,8.02645 -13.08319,17.72709 -6.39492,8.33525 -11.72134,15.19059 -11.83648,15.2341 -0.11515,0.0435 -5.26046,-6.50493 -11.434019,-14.55209 z m 14.212529,-19.92146 c 4.82058,-0.85877 9.09243,-4.05107 11.2334,-8.39459 1.75991,-3.57043 2.22199,-6.80623 1.47522,-10.33032 -1.04286,-4.92135 -4.24987,-9.01607 -8.73958,-11.15874 -2.4139,-1.152 -4.27387,-1.56881 -6.89652,-1.54546 -7.20538,0.0641 -13.46524,4.95568 -15.332325,11.98085 -0.49977,1.88046 -0.493271,5.4947 0.01375,7.64563 1.14927,4.87556 5.153342,9.35669 9.900155,11.07969 2.99895,1.08857 5.21567,1.28058 8.3459,0.72294 z m -6.01061,-2.13206 c -2.43445,-0.59019 -4.6644,-1.87529 -6.582619,-3.79352 -2.787163,-2.78716 -4.034886,-5.84008 -4.01281,-9.81851 0.02949,-5.31398 3.044527,-10.03594 7.882199,-12.3446 9.15123,-4.3672 19.67727,2.37559 19.70042,12.61974 0.0197,8.71281 -8.49291,15.39618 -16.98719,13.33689 z"
       id="path1" /></g></svg>
