<?xml version="1.0" encoding="UTF-8" standalone="no"?>
<!-- Created with Inkscape (http://www.inkscape.org/) -->

<svg
   width="210mm"
   height="297mm"
   viewBox="0 0 210 297"
   version="1.1"
   id="svg1"
   xml:space="preserve"
   inkscape:export-filename="valhome-Emmanuel\valhome-EmmanuelV2\position.svg"
   inkscape:export-xdpi="96"
   inkscape:export-ydpi="96"
   inkscape:version="1.3.2 (091e20e, 2023-11-25, custom)"
   sodipodi:docname="dessin.svg"
   xmlns:inkscape="http://www.inkscape.org/namespaces/inkscape"
   xmlns:sodipodi="http://sodipodi.sourceforge.net/DTD/sodipodi-0.dtd"
   xmlns="http://www.w3.org/2000/svg"
   xmlns:svg="http://www.w3.org/2000/svg"><sodipodi:namedview
     id="namedview1"
     pagecolor="#ffffff"
     bordercolor="#000000"
     borderopacity="0.25"
     inkscape:showpageshadow="2"
     inkscape:pageopacity="0.0"
     inkscape:pagecheckerboard="0"
     inkscape:deskcolor="#d1d1d1"
     inkscape:document-units="mm"
     showgrid="false"
     inkscape:export-bgcolor="#ffffff00"
     inkscape:zoom="0.76662259"
     inkscape:cx="261.53677"
     inkscape:cy="600.6867"
     inkscape:window-width="2560"
     inkscape:window-height="1494"
     inkscape:window-x="2509"
     inkscape:window-y="-11"
     inkscape:window-maximized="1"
     inkscape:current-layer="layer1"><inkscape:grid
       id="grid2"
       units="mm"
       originx="0"
       originy="0"
       spacingx="0.99999998"
       spacingy="1"
       empcolor="#0099e5"
       empopacity="0.30196078"
       color="#0099e5"
       opacity="0.14901961"
       empspacing="5"
       dotted="false"
       gridanglex="30"
       gridanglez="30"
       visible="false" /></sodipodi:namedview><defs
     id="defs1" /><g
     inkscape:label="Calque 1"
     inkscape:groupmode="layer"
     id="layer1"><path
       style="fill:#ffffff;stroke-width:0.345673"
       d="m 104.05625,178.66209 c -1.99311,-0.63805 -5.720503,-1.89532 -8.283082,-2.79393 -5.812785,-2.03835 -6.023827,-2.02391 -14.443432,0.98806 -3.545499,1.26834 -6.904951,2.26549 -7.632565,2.26549 -1.502413,0 -2.837286,-0.90406 -3.423092,-2.31832 -0.291891,-0.70469 -0.373433,-8.12014 -0.305562,-27.78801 l 0.09257,-26.82682 1.035386,-1.01084 c 0.754068,-0.7362 2.760059,-1.6297 7.383044,-3.28852 7.36396,-2.64234 9.740165,-3.30653 11.829494,-3.30653 0.97019,0 4.471422,0.98862 9.778259,2.76103 4.54679,1.51856 8.7561,2.76103 9.35401,2.76103 0.59791,0 4.7172,-1.24095 9.15399,-2.75765 8.75919,-2.99431 10.06286,-3.2087 13.44002,-2.21014 1.03101,0.30485 4.67011,1.55924 8.08688,2.78754 4.52828,1.62788 6.49299,2.50853 7.2477,3.24868 l 1.03539,1.0154 0.0926,26.82682 c 0.0679,19.66787 -0.0137,27.08332 -0.30556,27.78801 -0.58129,1.40336 -1.92188,2.31832 -3.39678,2.31832 -0.70035,0 -4.135,-1.01972 -7.63257,-2.26603 -3.49757,-1.24632 -7.06814,-2.35169 -7.9346,-2.4564 -1.29686,-0.15671 -2.39514,0.0979 -6.21231,1.44028 -12.80176,4.50192 -13.42429,4.59459 -18.95977,2.82253 z m 4.14154,-17.95235 v -16.68631 l -1.29423,-0.58131 c -1.06113,-0.4766 -4.25439,-0.86396 -7.401016,-0.89776 -1.36302,-0.0146 -2.345846,-1.48903 -3.225057,-4.83808 -1.388935,-5.29067 -1.312418,-5.17693 -3.48261,-5.17693 h -1.859161 l 0.08911,19.7371 0.08911,19.7371 1.725644,0.44727 c 0.949103,0.246 4.521181,1.45118 7.93796,2.67818 3.41676,1.227 6.48409,2.23904 6.81628,2.24898 0.56714,0.017 0.60397,-0.9997 0.60397,-16.66824 z m 5.29025,16.01944 c 0.88362,-0.33672 0.95184,-0.47814 0.71973,-1.49191 -0.3289,-1.43649 -0.2511,-2.5083 0.37948,-5.22728 0.44292,-1.90982 0.44713,-2.56721 0.0317,-4.94669 -0.26349,-1.50928 -0.39946,-3.16061 -0.30216,-3.66961 0.28971,-1.51553 1.80535,-2.80475 4.25541,-3.61971 1.69519,-0.56387 2.64891,-1.14859 3.79642,-2.32754 1.75275,-1.80077 3.01454,-2.5545 4.27638,-2.5545 h 0.87996 v -4.14155 c 0,-2.27784 -0.0599,-4.14154 -0.13311,-4.14154 -0.0732,0 -0.57796,0.23201 -1.12167,0.51557 -1.25847,0.65633 -2.31274,0.65591 -3.58393,-10e-4 -1.14916,-0.59426 -1.56804,-1.26194 -2.2658,-3.61152 -0.87286,-2.93925 -2.31771,-2.62933 -3.4383,0.73752 -1.08061,3.24673 -3.11346,4.38873 -5.76451,3.23836 -0.57034,-0.24748 -0.60398,0.63619 -0.60398,15.86646 v 16.12855 l 0.94911,-0.1906 c 0.522,-0.10482 1.38837,-0.35798 1.92524,-0.56257 z M 77.481355,175.8019 c 1.803297,-0.68513 5.064763,-1.83951 7.2477,-2.5653 l 3.968977,-1.31962 v -19.60753 -19.60753 l -1.902357,-0.20463 c -1.046297,-0.11255 -2.25779,-0.42316 -2.692209,-0.69026 -0.43442,-0.2671 -1.403226,-1.70725 -2.152904,-3.20034 -1.281322,-2.55193 -1.363049,-2.89856 -1.363049,-5.7809 0,-1.68641 -0.06878,-3.06619 -0.152839,-3.06619 -0.423257,0 -7.326992,2.55501 -7.698835,2.84927 -0.328711,0.26013 -0.431411,2.91943 -0.431411,11.17069 0,10.68666 0.0093,10.82929 0.707395,10.82929 1.935327,0 3.779277,1.98624 3.779277,4.07091 0,1.13315 0.405569,1.53839 3.180786,3.1782 1.085059,0.64113 2.075521,1.40785 2.201026,1.70381 0.125503,0.29596 0.267737,3.70115 0.316077,7.56708 l 0.08789,7.02897 -0.908399,1.00134 c -0.776523,0.85598 -1.522169,1.13535 -5.136224,1.92439 l -4.227824,0.92304 v 2.10802 c 0,2.13049 0.375004,2.93775 1.363257,2.93464 0.294222,-7.9e-4 2.010373,-0.56223 3.81367,-1.24735 z m 68.295335,0.77968 c 0.28358,-0.3417 0.36548,-7.73279 0.3011,-27.17618 l -0.0884,-26.70683 -1.20795,-0.55274 c -2.14063,-0.97952 -6.89272,-2.51113 -7.11172,-2.29213 -0.11684,0.11684 0.21478,2.04599 0.73693,4.28699 1.34135,5.75693 1.2298,6.63734 -1.01698,8.02593 -1.05034,0.64914 -1.3341,1.1722 -2.44572,4.50825 -1.28202,3.84742 -2.09244,4.99298 -4.21715,5.96106 -0.76622,0.34911 -0.78589,0.48589 -0.78589,5.46397 v 5.10589 l 1.29423,0.21726 c 2.31064,0.3879 3.40715,0.84772 4.30775,1.80648 1.29282,1.37632 3.71664,6.43176 3.7156,7.74975 -5.3e-4,0.6776 -0.48371,1.93004 -1.20795,3.13111 -1.64431,2.7269 -1.57847,3.35382 0.56343,5.365 1.3299,1.24873 1.82374,1.9876 1.98449,2.96912 0.18966,1.15807 0.39064,1.37653 1.76708,1.92077 1.92602,0.76154 2.90703,0.82375 3.41117,0.2163 z m -24.04459,-2.80937 c 2.45534,-0.85419 4.76321,-1.55308 5.12858,-1.55308 0.63759,0 0.66431,-0.34016 0.66431,-8.45564 v -8.45565 h -0.87785 c -0.60328,0 -1.45362,0.58039 -2.71868,1.8556 -1.47821,1.49007 -2.26681,1.98296 -4.00334,2.50218 -1.40538,0.4202 -2.38673,0.94867 -2.80293,1.5094 -0.60781,0.81887 -0.61317,1.00677 -0.10516,3.68878 0.50813,2.68271 0.49973,2.97557 -0.16574,5.77755 -0.50679,2.13383 -0.60976,3.19157 -0.37168,3.81777 0.18112,0.47639 0.43257,0.86617 0.55876,0.86617 0.1262,0 2.23837,-0.69888 4.69373,-1.55308 z m 16.49188,0.5467 c 0,-0.17387 -0.62591,-0.81186 -1.39091,-1.41775 -2.73663,-2.16745 -3.09081,-4.29755 -1.20639,-7.25546 0.65951,-1.03522 1.20309,-2.23511 1.20795,-2.66642 0.012,-1.06745 -2.59907,-6.1878 -3.35309,-6.5754 -0.33388,-0.17163 -1.26712,-0.39602 -2.07385,-0.49865 l -1.4668,-0.18658 0.007,8.16396 0.007,8.16396 3.8754,1.26024 c 4.44135,1.44428 4.3931,1.43316 4.3931,1.0121 z m -59.879803,-6.02006 1.725642,-0.43712 v -6.64555 -6.64555 l -2.115624,-1.33622 C 75.39288,151.6167 74.3752,150.39714 74.3752,148.94544 c 0,-1.22605 -0.52424,-1.92069 -1.449541,-1.92069 -0.58564,0 -0.621231,0.65078 -0.621231,11.35863 v 11.35864 l 2.157052,-0.50303 c 1.186379,-0.27666 2.933592,-0.69973 3.882697,-0.94014 z M 114.8307,141.33013 c 1.07166,-3.59454 3.42877,-4.88108 6.03326,-3.29303 0.87167,0.53149 1.24442,1.13116 1.76905,2.84602 0.57725,1.88686 0.78478,2.18711 1.57769,2.28257 0.50476,0.0608 1.44988,-0.22189 2.11365,-0.63213 l 1.20064,-0.74203 v -12.39648 c 0,-10.84337 -0.0655,-12.39648 -0.52285,-12.39648 -0.28757,0 -3.54868,1.08005 -7.2469,2.40011 -3.69823,1.32006 -7.26799,2.50216 -7.9328,2.62688 l -1.20875,0.22676 v 10.2627 10.26271 l 0.77654,0.38283 c 0.4271,0.21056 1.23702,0.35077 1.79982,0.31159 0.93517,-0.0651 1.07644,-0.24956 1.64065,-2.14202 z m -6.63347,-9.40475 -5.3e-4,-9.57732 -8.19624,-2.68616 c -4.507931,-1.4774 -8.390374,-2.68103 -8.627649,-2.67475 -0.329592,0.009 -0.431411,1.55908 -0.431411,6.56886 v 6.55744 l 1.811925,0.001 c 2.042324,0.001 3.865022,0.89454 4.398086,2.15497 0.180814,0.42753 0.575321,1.78683 0.876681,3.02067 0.301361,1.23383 0.694968,2.80772 0.874681,3.49752 l 0.326755,1.2542 3.362482,0.14443 c 2.25281,0.0968 3.70418,0.33322 4.39787,0.71648 0.56946,0.31462 1.07421,0.57826 1.12166,0.58586 0.0475,0.008 0.086,-4.29597 0.0857,-9.5635 z m 23.06229,7.59283 c 0.41859,-0.35869 1.13788,-2.03068 1.77111,-4.11695 0.82601,-2.72141 1.29506,-3.70549 2.08167,-4.36738 0.55847,-0.46992 1.19586,-0.91456 1.41642,-0.98808 0.62663,-0.20887 0.48761,-1.4822 -0.73662,-6.74682 l -1.13764,-4.89226 -1.23512,-0.48943 c -0.67931,-0.26919 -1.73986,-0.59837 -2.35678,-0.7315 l -1.12167,-0.24207 v 11.58923 c 0,6.5335 0.13388,11.58923 0.3069,11.58923 0.16879,0 0.62407,-0.27179 1.01173,-0.60397 z M 88.792131,123.63446 c 0.07286,-4.88272 -0.0059,-6.34479 -0.348753,-6.47637 -0.243567,-0.0935 -1.528373,0.19591 -2.855126,0.64306 l -2.412275,0.81299 -0.09755,3.43372 c -0.09096,3.20158 -0.02601,3.5915 0.960538,5.7673 l 1.05809,2.33357 1.800492,-0.10392 1.80049,-0.10392 z"
       id="path2" /><path
       style="fill:#5a5451;fill-opacity:1;stroke-width:0.715692"
       d="m 103.27961,197.81863 c -9.571412,-0.9126 -18.673818,-4.456 -26.543147,-10.33276 -2.492487,-1.86137 -7.996128,-7.36501 -9.8575,-9.85749 -14.05811,-18.82465 -14.05811,-43.75491 0,-62.57956 1.861372,-2.49249 7.365013,-7.99613 9.8575,-9.8575 18.824641,-14.05811 43.754907,-14.05811 62.579547,0 2.49249,1.86137 7.99613,7.36501 9.8575,9.8575 14.05812,18.82465 14.05812,43.75491 0,62.57956 -1.86137,2.49248 -7.36501,7.99612 -9.8575,9.85749 -10.49878,7.84043 -23.39473,11.53809 -36.0364,10.33276 z m 14.34034,-36.87073 c 5.31467,-9.8193 9.71196,-18.17835 10.01444,-19.037 1.30272,-3.69812 1.54534,-8.49463 0.61128,-12.08451 -3.40512,-13.08678 -17.80199,-19.59326 -29.753401,-13.44665 -5.317143,2.73462 -9.088826,7.4783 -10.706843,13.46611 -0.368927,1.36529 -0.446525,2.19953 -0.453796,4.87865 -0.0093,3.42458 0.204514,4.78213 1.17368,7.45215 0.470424,1.296 19.29396,36.27743 19.52093,36.27743 0.0652,0 4.38236,-7.87778 9.59371,-17.50618 z m -17.686324,-4.0527 c -4.371842,-8.08029 -8.152627,-15.25294 -8.401733,-15.93921 -0.844771,-2.32732 -1.145066,-4.38278 -1.013016,-6.93387 0.13192,-2.54856 0.428351,-3.86925 1.35972,-6.05793 2.095625,-4.92465 6.467322,-8.6784 11.804983,-10.13634 1.28956,-0.35223 2.16651,-0.44136 4.34266,-0.44136 2.17613,0 3.05309,0.0891 4.34266,0.44136 5.33765,1.45794 9.70936,5.21169 11.80498,10.13634 0.93137,2.18868 1.2278,3.50937 1.35972,6.05793 0.13205,2.55109 -0.16825,4.60655 -1.01302,6.93387 -0.49022,1.35055 -16.2573,30.63063 -16.49434,30.63063 -0.0791,0 -3.72075,-6.61114 -8.092614,-14.69142 z"
       id="path3" /></g></svg>
