<?xml version="1.0" encoding="UTF-8" standalone="no"?>
<!-- Created with Inkscape (http://www.inkscape.org/) -->

<svg
   width="210mm"
   height="297mm"
   viewBox="0 0 210 297"
   version="1.1"
   id="svg1"
   xml:space="preserve"
   inkscape:export-filename="valhome-Emmanuel\valhome-EmmanuelV2\position.svg"
   inkscape:export-xdpi="96"
   inkscape:export-ydpi="96"
   inkscape:version="1.3.2 (091e20e, 2023-11-25, custom)"
   sodipodi:docname="dessin.svg"
   xmlns:inkscape="http://www.inkscape.org/namespaces/inkscape"
   xmlns:sodipodi="http://sodipodi.sourceforge.net/DTD/sodipodi-0.dtd"
   xmlns="http://www.w3.org/2000/svg"
   xmlns:svg="http://www.w3.org/2000/svg"><sodipodi:namedview
     id="namedview1"
     pagecolor="#ffffff"
     bordercolor="#000000"
     borderopacity="0.25"
     inkscape:showpageshadow="2"
     inkscape:pageopacity="0.0"
     inkscape:pagecheckerboard="0"
     inkscape:deskcolor="#d1d1d1"
     inkscape:document-units="mm"
     showgrid="false"
     inkscape:export-bgcolor="#ffffff00"
     inkscape:zoom="0.76662259"
     inkscape:cx="261.53677"
     inkscape:cy="600.6867"
     inkscape:window-width="2560"
     inkscape:window-height="1494"
     inkscape:window-x="2509"
     inkscape:window-y="-11"
     inkscape:window-maximized="1"
     inkscape:current-layer="layer1"><inkscape:grid
       id="grid2"
       units="mm"
       originx="0"
       originy="0"
       spacingx="0.99999998"
       spacingy="1"
       empcolor="#0099e5"
       empopacity="0.30196078"
       color="#0099e5"
       opacity="0.14901961"
       empspacing="5"
       dotted="false"
       gridanglex="30"
       gridanglez="30"
       visible="false" /></sodipodi:namedview><defs
     id="defs1" /><g
     inkscape:label="Calque 1"
     inkscape:groupmode="layer"
     id="layer1"><path
       style="fill:#5a5451;fill-opacity:1;stroke-width:0.715692"
       d="m 103.27961,197.81863 c -9.571412,-0.9126 -18.673818,-4.456 -26.543147,-10.33276 -2.492487,-1.86137 -7.996128,-7.36501 -9.8575,-9.85749 -14.05811,-18.82465 -14.05811,-43.75491 0,-62.57956 1.861372,-2.49249 7.365013,-7.99613 9.8575,-9.8575 18.824641,-14.05811 43.754907,-14.05811 62.579547,0 2.49249,1.86137 7.99613,7.36501 9.8575,9.8575 14.05812,18.82465 14.05812,43.75491 0,62.57956 -1.86137,2.49248 -7.36501,7.99612 -9.8575,9.85749 -10.49878,7.84043 -23.39473,11.53809 -36.0364,10.33276 z m 14.34034,-36.87073 c 5.31467,-9.8193 9.71196,-18.17835 10.01444,-19.037 1.30272,-3.69812 1.54534,-8.49463 0.61128,-12.08451 -3.40512,-13.08678 -17.80199,-19.59326 -29.753401,-13.44665 -5.317143,2.73462 -9.088826,7.4783 -10.706843,13.46611 -0.368927,1.36529 -0.446525,2.19953 -0.453796,4.87865 -0.0093,3.42458 0.204514,4.78213 1.17368,7.45215 0.470424,1.296 19.29396,36.27743 19.52093,36.27743 0.0652,0 4.38236,-7.87778 9.59371,-17.50618 z m -17.686324,-4.0527 c -4.371842,-8.08029 -8.152627,-15.25294 -8.401733,-15.93921 -0.844771,-2.32732 -1.145066,-4.38278 -1.013016,-6.93387 0.13192,-2.54856 0.428351,-3.86925 1.35972,-6.05793 2.095625,-4.92465 6.467322,-8.6784 11.804983,-10.13634 1.28956,-0.35223 2.16651,-0.44136 4.34266,-0.44136 2.17613,0 3.05309,0.0891 4.34266,0.44136 5.33765,1.45794 9.70936,5.21169 11.80498,10.13634 0.93137,2.18868 1.2278,3.50937 1.35972,6.05793 0.13205,2.55109 -0.16825,4.60655 -1.01302,6.93387 -0.49022,1.35055 -16.2573,30.63063 -16.49434,30.63063 -0.0791,0 -3.72075,-6.61114 -8.092614,-14.69142 z"
       id="path3" /></g></svg>
