<?xml version="1.0" encoding="UTF-8" standalone="no"?>
<!-- Created with Inkscape (http://www.inkscape.org/) -->

<svg
   width="210mm"
   height="297mm"
   viewBox="0 0 210 297"
   version="1.1"
   id="svg1"
   xml:space="preserve"
   inkscape:export-filename="valhome-Emmanuel\valhome-EmmanuelV2\position.svg"
   inkscape:export-xdpi="96"
   inkscape:export-ydpi="96"
   inkscape:version="1.3.2 (091e20e, 2023-11-25, custom)"
   sodipodi:docname="dessin.svg"
   xmlns:inkscape="http://www.inkscape.org/namespaces/inkscape"
   xmlns:sodipodi="http://sodipodi.sourceforge.net/DTD/sodipodi-0.dtd"
   xmlns="http://www.w3.org/2000/svg"
   xmlns:svg="http://www.w3.org/2000/svg"><sodipodi:namedview
     id="namedview1"
     pagecolor="#ffffff"
     bordercolor="#000000"
     borderopacity="0.25"
     inkscape:showpageshadow="2"
     inkscape:pageopacity="0.0"
     inkscape:pagecheckerboard="0"
     inkscape:deskcolor="#d1d1d1"
     inkscape:document-units="mm"
     showgrid="false"
     inkscape:export-bgcolor="#00000000"
     inkscape:zoom="0.76662259"
     inkscape:cx="261.53677"
     inkscape:cy="600.6867"
     inkscape:window-width="2560"
     inkscape:window-height="1494"
     inkscape:window-x="2509"
     inkscape:window-y="-11"
     inkscape:window-maximized="1"
     inkscape:current-layer="layer1"><inkscape:grid
       id="grid2"
       units="mm"
       originx="0"
       originy="0"
       spacingx="0.99999998"
       spacingy="1"
       empcolor="#0099e5"
       empopacity="0.30196078"
       color="#0099e5"
       opacity="0.14901961"
       empspacing="5"
       dotted="false"
       gridanglex="30"
       gridanglez="30"
       visible="false" /></sodipodi:namedview><defs
     id="defs1" /><g
     inkscape:label="Calque 1"
     inkscape:groupmode="layer"
     id="layer1"><path
       style="fill:#ffffff"
       d="m 103.46379,217.57468 c -13.373648,-1.27512 -26.091973,-6.22613 -37.087385,-14.43743 -3.482625,-2.6008 -11.172582,-10.29076 -13.773383,-13.77338 -19.642682,-26.30272 -19.642682,-61.1365 0,-87.43922 2.600801,-3.48263 10.290758,-11.17258 13.773383,-13.773383 26.302719,-19.642682 61.136495,-19.642682 87.439215,0 3.48262,2.600803 11.17258,10.290753 13.77338,13.773383 19.64268,26.30272 19.64268,61.1365 0,87.43922 -2.6008,3.48262 -10.29076,11.17258 -13.77338,13.77338 -14.66943,10.95503 -32.68827,16.12159 -50.35183,14.43743 z m 20.03702,-51.51758 c 7.42593,-13.72002 13.57003,-25.3997 13.99266,-26.59945 1.82023,-5.16718 2.15924,-11.8691 0.85412,-16.88505 -4.75778,-18.2855 -24.87382,-27.37668 -41.572896,-18.78833 -7.429384,3.82094 -12.699365,10.44905 -14.960137,18.81551 -0.515483,1.90766 -0.623906,3.0733 -0.634066,6.8167 -0.01299,4.78499 0.285756,6.68182 1.639923,10.41251 0.657299,1.81084 26.958476,50.6886 27.275596,50.6886 0.0911,0 6.12325,-11.00722 13.4048,-24.46049 z m -24.712176,-5.66264 c -6.10857,-11.29017 -11.391266,-21.31214 -11.73933,-22.27105 -1.180354,-3.25184 -1.599942,-6.12383 -1.415434,-9.68835 0.184324,-3.56097 0.598512,-5.40629 1.899867,-8.46443 2.928105,-6.88095 9.036467,-12.12588 16.494493,-14.16297 1.80185,-0.49217 3.02716,-0.6167 6.06778,-0.6167 3.04062,0 4.26593,0.12453 6.06778,0.6167 7.45803,2.03709 13.56639,7.28202 16.4945,14.16297 1.30135,3.05814 1.71554,4.90346 1.89986,8.46443 0.18451,3.56452 -0.23508,6.43651 -1.41543,9.68835 -0.68496,1.88706 -22.71551,42.79863 -23.04671,42.79863 -0.11049,0 -5.19881,-9.23741 -11.307376,-20.52758 z"
       id="path1"
       inkscape:transform-center-x="-40.03491"
       inkscape:transform-center-y="-30.371311" /></g></svg>
