<?xml version="1.0" encoding="UTF-8" standalone="no"?>
<!-- Created with Inkscape (http://www.inkscape.org/) -->

<svg
   width="210mm"
   height="297mm"
   viewBox="0 0 210 297"
   version="1.1"
   id="svg1"
   xml:space="preserve"
   inkscape:export-filename="valhome-Emmanuel\valhome-EmmanuelV2\position.svg"
   inkscape:export-xdpi="96"
   inkscape:export-ydpi="96"
   inkscape:version="1.3.2 (091e20e, 2023-11-25, custom)"
   sodipodi:docname="dessin.svg"
   xmlns:inkscape="http://www.inkscape.org/namespaces/inkscape"
   xmlns:sodipodi="http://sodipodi.sourceforge.net/DTD/sodipodi-0.dtd"
   xmlns="http://www.w3.org/2000/svg"
   xmlns:svg="http://www.w3.org/2000/svg"><sodipodi:namedview
     id="namedview1"
     pagecolor="#ffffff"
     bordercolor="#000000"
     borderopacity="0.25"
     inkscape:showpageshadow="2"
     inkscape:pageopacity="0.0"
     inkscape:pagecheckerboard="0"
     inkscape:deskcolor="#d1d1d1"
     inkscape:document-units="mm"
     showgrid="false"
     inkscape:export-bgcolor="#ffffff00"
     inkscape:zoom="0.76662259"
     inkscape:cx="261.53677"
     inkscape:cy="600.6867"
     inkscape:window-width="2560"
     inkscape:window-height="1494"
     inkscape:window-x="2509"
     inkscape:window-y="-11"
     inkscape:window-maximized="1"
     inkscape:current-layer="layer1"><inkscape:grid
       id="grid2"
       units="mm"
       originx="0"
       originy="0"
       spacingx="0.99999998"
       spacingy="1"
       empcolor="#0099e5"
       empopacity="0.30196078"
       color="#0099e5"
       opacity="0.14901961"
       empspacing="5"
       dotted="false"
       gridanglex="30"
       gridanglez="30"
       visible="false" /></sodipodi:namedview><defs
     id="defs1" /><g
     inkscape:label="Calque 1"
     inkscape:groupmode="layer"
     id="layer1"><path
       style="fill:#5a5451;fill-opacity:1;stroke-width:0.795164"
       d="m 101.13855,208.9616 c -11.959283,-1.51158 -22.790366,-6.84245 -31.404819,-15.45691 -4.584557,-4.58455 -7.441253,-8.57397 -10.321699,-14.4144 -2.773186,-5.62296 -4.622579,-12.12802 -5.259389,-18.49938 -0.313398,-3.1356 -0.142781,-9.92236 0.325646,-12.95352 1.859793,-12.03456 7.349008,-22.59228 16.134369,-31.03212 7.859088,-7.54999 17.598776,-12.39476 28.788559,-14.32013 2.689223,-0.46272 11.176283,-0.65041 14.118933,-0.31223 12.45855,1.43177 23.50845,6.72918 32.27721,15.47391 4.29691,4.28516 7.55641,8.86887 10.31877,14.5109 3.73204,7.6226 5.4075,14.87936 5.41743,23.46399 0.006,5.70525 -0.58698,10.04038 -2.06974,15.11589 -5.18615,17.75236 -19.11021,31.6116 -36.92002,36.74813 -4.79843,1.38392 -8.02799,1.82715 -13.88556,1.9057 -3.58553,0.0481 -5.87441,-0.0218 -7.51969,-0.22983 z m 16.26491,-31.28825 c 10.05538,-13.09996 11.29516,-14.83233 12.76273,-17.8335 5.625,-11.50304 3.90631,-23.538 -4.48934,-31.43602 -5.18729,-4.87983 -11.76484,-7.30283 -19.00221,-6.99992 -6.872969,0.28765 -12.909752,2.95481 -17.64556,7.79611 -4.605682,4.70829 -6.879615,10.38204 -6.879615,17.16553 0,4.56944 1.063901,9.04847 3.185201,13.40973 1.51738,3.11964 2.764783,4.87415 12.161819,17.10594 10.260655,13.35596 9.841615,12.83362 10.295835,12.83362 0.23878,0 3.61783,-4.23351 9.61114,-12.04149 z M 98.724248,175.78698 C 88.6668,162.67725 88.402739,162.30831 86.872933,159.22844 c -3.316262,-6.67647 -4.021001,-13.93271 -1.966303,-20.24575 2.643182,-8.12116 10.344368,-14.47928 19.08597,-15.75748 2.75222,-0.40242 7.46145,-0.16566 10.00697,0.50313 2.6465,0.69533 6.27684,2.44596 8.43904,4.06952 10.19107,7.65229 12.25106,20.88262 5.19279,33.35086 -0.74111,1.30914 -4.48529,6.38235 -10.40329,14.09595 -5.08501,6.6279 -9.32039,12.07902 -9.41195,12.11361 -0.0916,0.0346 -4.18292,-5.17248 -9.091912,-11.5713 z m 11.301282,-15.84083 c 3.83316,-0.68287 7.22998,-3.22127 8.93241,-6.67508 1.39942,-2.83908 1.76685,-5.41207 1.17304,-8.2143 -0.82925,-3.91329 -3.37934,-7.16926 -6.94941,-8.87304 -1.91945,-0.91603 -3.39842,-1.24745 -5.48386,-1.22889 -5.72945,0.0509 -10.707072,3.94058 -12.191713,9.52674 -0.397399,1.49528 -0.39223,4.36919 0.01093,6.07953 0.913858,3.87688 4.097753,7.44011 7.872253,8.81018 2.38466,0.86559 4.14731,1.01827 6.63635,0.57486 z m -4.77941,-1.69534 c -1.93579,-0.46929 -3.70896,-1.49117 -5.23426,-3.01647 -2.216256,-2.21625 -3.208401,-4.64383 -3.190846,-7.80734 0.02344,-4.22548 2.420899,-7.98022 6.267646,-9.81598 7.27672,-3.47263 15.64666,1.88899 15.66506,10.03478 0.0157,6.9281 -6.75326,12.24249 -13.5076,10.60501 z"
       id="path1" /></g></svg>
