<?xml version="1.0" encoding="UTF-8" standalone="no"?>
<!-- Created with Inkscape (http://www.inkscape.org/) -->

<svg
   width="210mm"
   height="297mm"
   viewBox="0 0 210 297"
   version="1.1"
   id="svg1"
   xml:space="preserve"
   inkscape:export-filename="engrenage.svg"
   inkscape:export-xdpi="96"
   inkscape:export-ydpi="96"
   xmlns:inkscape="http://www.inkscape.org/namespaces/inkscape"
   xmlns:sodipodi="http://sodipodi.sourceforge.net/DTD/sodipodi-0.dtd"
   xmlns="http://www.w3.org/2000/svg"
   xmlns:svg="http://www.w3.org/2000/svg"><sodipodi:namedview
     id="namedview1"
     pagecolor="#ffffff"
     bordercolor="#000000"
     borderopacity="0.25"
     inkscape:showpageshadow="2"
     inkscape:pageopacity="0.0"
     inkscape:pagecheckerboard="0"
     inkscape:deskcolor="#d1d1d1"
     inkscape:document-units="mm"
     showgrid="false"
     inkscape:export-bgcolor="#00000000"><inkscape:grid
       id="grid2"
       units="mm"
       originx="0"
       originy="0"
       spacingx="0.99999998"
       spacingy="1"
       empcolor="#0099e5"
       empopacity="0.30196078"
       color="#0099e5"
       opacity="0.14901961"
       empspacing="5"
       dotted="false"
       gridanglex="30"
       gridanglez="30"
       visible="false" /></sodipodi:namedview><defs
     id="defs1" /><g
     inkscape:label="Calque 1"
     inkscape:groupmode="layer"
     id="layer1"><path
       style="fill:#ffffff"
       d="m 95.008131,217.05698 c -13.373646,-1.27513 -26.091973,-6.22614 -37.087385,-14.43743 -3.482625,-2.60081 -11.172581,-10.29076 -13.773381,-13.77339 -19.64268,-26.30271 -19.64268,-61.1365 0,-87.43921 2.6008,-3.482629 10.290756,-11.172586 13.773381,-13.773386 26.302715,-19.642683 61.136494,-19.642683 87.439204,0 3.48263,2.6008 11.17259,10.290757 13.77339,13.773386 19.64268,26.30271 19.64268,61.1365 0,87.43921 -2.6008,3.48263 -10.29076,11.17258 -13.77339,13.77339 -14.66942,10.95502 -32.68826,16.12158 -50.351819,14.43743 z m 20.037019,-51.51759 c 7.42592,-13.72001 13.57003,-25.39969 13.99266,-26.59944 1.82023,-5.16719 2.15924,-11.86911 0.85412,-16.88505 -4.75779,-18.2855 -24.87382,-27.376684 -41.5729,-18.78833 -7.429379,3.82094 -12.69936,10.44904 -14.960132,18.81551 -0.515483,1.90765 -0.623906,3.07329 -0.634066,6.8167 -0.01299,4.78498 0.285756,6.68182 1.639923,10.4125 0.657299,1.81084 26.958485,50.68861 27.275595,50.68861 0.0911,0 6.12325,-11.00723 13.4048,-24.4605 z m -24.712174,-5.66264 c -6.108568,-11.29017 -11.391267,-21.31214 -11.739331,-22.27104 -1.180355,-3.25184 -1.599942,-6.12383 -1.415435,-9.68835 0.184325,-3.56097 0.598513,-5.40629 1.899868,-8.46443 2.928108,-6.88096 9.036462,-12.12588 16.494498,-14.16298 1.801846,-0.49216 3.027161,-0.61669 6.067774,-0.61669 3.04061,0 4.26593,0.12453 6.06778,0.61669 7.45803,2.0371 13.56639,7.28202 16.49449,14.16298 1.30136,3.05814 1.71555,4.90346 1.89987,8.46443 0.18451,3.56452 -0.23508,6.43651 -1.41543,9.68835 -0.68497,1.88705 -22.71551,42.79862 -23.04671,42.79862 -0.11049,0 -5.198806,-9.23741 -11.307374,-20.52758 z"
       id="path3" /></g></svg>
