<?xml version="1.0" encoding="UTF-8" standalone="no"?>
<!-- Created with Inkscape (http://www.inkscape.org/) -->

<svg
   width="210mm"
   height="297mm"
   viewBox="0 0 210 297"
   version="1.1"
   id="svg1"
   xml:space="preserve"
   inkscape:export-filename="valhome-Emmanuel\position.svg"
   inkscape:export-xdpi="96"
   inkscape:export-ydpi="96"
   inkscape:version="1.3.2 (091e20e, 2023-11-25, custom)"
   sodipodi:docname="dessin.svg"
   xmlns:inkscape="http://www.inkscape.org/namespaces/inkscape"
   xmlns:sodipodi="http://sodipodi.sourceforge.net/DTD/sodipodi-0.dtd"
   xmlns="http://www.w3.org/2000/svg"
   xmlns:svg="http://www.w3.org/2000/svg"><sodipodi:namedview
     id="namedview1"
     pagecolor="#ffffff"
     bordercolor="#000000"
     borderopacity="0.25"
     inkscape:showpageshadow="2"
     inkscape:pageopacity="0.0"
     inkscape:pagecheckerboard="0"
     inkscape:deskcolor="#d1d1d1"
     inkscape:document-units="mm"
     showgrid="false"
     inkscape:export-bgcolor="#ffffff00"
     inkscape:zoom="0.76662259"
     inkscape:cx="261.53677"
     inkscape:cy="600.6867"
     inkscape:window-width="2560"
     inkscape:window-height="1494"
     inkscape:window-x="2509"
     inkscape:window-y="-11"
     inkscape:window-maximized="1"
     inkscape:current-layer="layer1"><inkscape:grid
       id="grid2"
       units="mm"
       originx="0"
       originy="0"
       spacingx="0.99999998"
       spacingy="1"
       empcolor="#0099e5"
       empopacity="0.30196078"
       color="#0099e5"
       opacity="0.14901961"
       empspacing="5"
       dotted="false"
       gridanglex="30"
       gridanglez="30"
       visible="false" /></sodipodi:namedview><defs
     id="defs1" /><g
     inkscape:label="Calque 1"
     inkscape:groupmode="layer"
     id="layer1"><path
       style="fill:#ffffff"
       d="M 102.56037,203.83018 C 87.520349,201.92921 73.899158,195.2251 63.065613,184.39155 57.300067,178.626 53.707481,173.6089 50.085027,166.26396 c -3.487562,-7.07143 -5.813362,-15.2522 -6.614215,-23.26485 -0.39413,-3.94332 -0.179562,-12.47837 0.409534,-16.29036 2.338877,-15.13468 9.242123,-28.412063 20.290606,-39.026038 9.883606,-9.494892 22.132247,-15.587671 36.204538,-18.009026 3.38196,-0.581918 14.05533,-0.817948 17.75602,-0.392654 15.66788,1.800594 29.56426,8.462617 40.59185,19.46002 5.4038,5.389015 9.50296,11.153491 12.9769,18.248928 4.69343,9.58619 6.80049,18.7123 6.81298,29.50836 0.008,7.17491 -0.7382,12.62679 -2.60291,19.00975 -6.52211,22.32541 -24.03304,39.75481 -46.43067,46.21452 -6.03453,1.74042 -10.096,2.29782 -17.4625,2.39661 -4.50918,0.0605 -7.38768,-0.0275 -9.45679,-0.28904 z m 20.45478,-39.34816 c 12.64566,-16.47454 14.20481,-18.65317 16.05043,-22.42743 7.07401,-14.46625 4.91258,-29.60144 -5.6458,-39.534 -6.52355,-6.136883 -14.79547,-9.184043 -23.89721,-8.803113 -8.64347,0.36176 -16.235331,3.71598 -22.191091,9.804413 -5.792121,5.92114 -8.651821,13.05647 -8.651821,21.5874 0,5.74653 1.33797,11.37937 4.00572,16.8641 1.908261,3.92326 3.476991,6.12973 15.294721,21.51244 12.903841,16.79647 12.376851,16.13959 12.948081,16.13959 0.30028,0 4.54978,-5.32407 12.08697,-15.1434 z m -23.491011,-2.37229 c -12.64827,-16.48683 -12.98035,-16.95081 -14.90424,-20.82407 -4.170531,-8.39632 -5.056811,-17.52177 -2.472821,-25.46106 3.324071,-10.21318 13.009091,-18.209183 24.002562,-19.816643 3.46119,-0.50609 9.38352,-0.20833 12.58478,0.63274 3.32825,0.87444 7.89377,3.076036 10.61295,5.117823 12.81631,9.62353 15.40695,26.26203 6.53045,41.94211 -0.93201,1.64638 -5.64072,8.02644 -13.08318,17.72708 -6.39492,8.33525 -11.72134,15.19059 -11.83649,15.2341 -0.11514,0.0435 -5.26045,-6.50493 -11.434011,-14.55208 z m 14.212531,-19.92147 c 4.82058,-0.85877 9.09243,-4.05107 11.2334,-8.39458 1.7599,-3.57043 2.22199,-6.80624 1.47522,-10.33032 -1.04287,-4.92135 -4.24988,-9.01608 -8.73959,-11.15875 -2.41389,-1.152 -4.27386,-1.56881 -6.89651,-1.54546 -7.20538,0.0642 -13.465241,4.95568 -15.332331,11.98085 -0.49977,1.88046 -0.49327,5.4947 0.0137,7.64564 1.14927,4.87556 5.153341,9.35669 9.900151,11.07969 2.99895,1.08856 5.21567,1.28058 8.34591,0.72293 z m -6.01062,-2.13206 c -2.43444,-0.59019 -4.66439,-1.87529 -6.58261,-3.79351 -2.787171,-2.78717 -4.034891,-5.84009 -4.012811,-9.81852 0.0295,-5.31398 3.044521,-10.03594 7.882201,-12.3446 9.15123,-4.36719 19.67727,2.3756 19.70042,12.61974 0.0197,8.71282 -8.49292,15.39619 -16.9872,13.33689 z"
       id="path1" /></g></svg>
