<?xml version="1.0" encoding="UTF-8" standalone="no"?>
<!-- Created with Inkscape (http://www.inkscape.org/) -->

<svg
   width="210mm"
   height="297mm"
   viewBox="0 0 210 297"
   version="1.1"
   id="svg1"
   xml:space="preserve"
   inkscape:export-filename="valhome-Emmanuel\position.svg"
   inkscape:export-xdpi="96"
   inkscape:export-ydpi="96"
   inkscape:version="1.3.2 (091e20e, 2023-11-25, custom)"
   sodipodi:docname="dessin.svg"
   xmlns:inkscape="http://www.inkscape.org/namespaces/inkscape"
   xmlns:sodipodi="http://sodipodi.sourceforge.net/DTD/sodipodi-0.dtd"
   xmlns="http://www.w3.org/2000/svg"
   xmlns:svg="http://www.w3.org/2000/svg"><sodipodi:namedview
     id="namedview1"
     pagecolor="#ffffff"
     bordercolor="#000000"
     borderopacity="0.25"
     inkscape:showpageshadow="2"
     inkscape:pageopacity="0.0"
     inkscape:pagecheckerboard="0"
     inkscape:deskcolor="#d1d1d1"
     inkscape:document-units="mm"
     showgrid="false"
     inkscape:export-bgcolor="#00000000"
     inkscape:zoom="0.76662259"
     inkscape:cx="261.53677"
     inkscape:cy="600.6867"
     inkscape:window-width="2560"
     inkscape:window-height="1494"
     inkscape:window-x="2509"
     inkscape:window-y="-11"
     inkscape:window-maximized="1"
     inkscape:current-layer="layer1"><inkscape:grid
       id="grid2"
       units="mm"
       originx="0"
       originy="0"
       spacingx="0.99999998"
       spacingy="1"
       empcolor="#0099e5"
       empopacity="0.30196078"
       color="#0099e5"
       opacity="0.14901961"
       empspacing="5"
       dotted="false"
       gridanglex="30"
       gridanglez="30"
       visible="false" /></sodipodi:namedview><defs
     id="defs1" /><g
     inkscape:label="Calque 1"
     inkscape:groupmode="layer"
     id="layer1"><g
       id="g3"
       style="fill:#ffffff;stroke:#ffffff;stroke-opacity:1"
       transform="translate(-3.9399866,4.0823272)"><path
         style="fill:#ffffff;fill-opacity:1;stroke:#ffffff;stroke-width:3.565;stroke-dasharray:none;stroke-opacity:1"
         d="m 100.02256,97.585092 2.65318,-0.798107 2.65317,-0.668687 2.09235,-0.237276 2.84731,-0.107855 2.89045,0.06471 2.35119,0.237276 1.74721,0.280418 1.63936,0.301988 2.28648,0.733398 2.80417,1.229519 1.87663,0.992246 2.50218,1.423658 2.26491,1.74721 2.67474,2.45904 1.59623,1.94135 1.46679,2.02763 0.99225,1.59622 0.79811,1.50994 0.92753,1.98449 0.88439,2.73945 0.47455,1.91978 0.47455,3.516 0.19414,2.09234 -0.0431,1.22952 -0.12942,2.91202 -0.62555,3.58071 -1.38052,4.81023 -1.55307,3.66699 -0.77654,1.61779 -0.7334,1.27266 -3.12773,4.59453 -4.87494,6.53587 L 111.002,176.61953 88.547079,147.6503 c 0,0 -1.488365,-2.17862 -1.59622,-2.28647 -0.107852,-0.10786 -1.078527,-1.70408 -1.078527,-1.70408 l -1.574649,-3.01987 -1.143238,-2.61004 -0.776539,-2.45904 -0.754967,-2.37276 -0.517694,-2.80417 c 0,0 -0.301988,-3.10615 -0.301988,-3.19243 0,-0.0863 -0.150992,-2.58847 -0.150992,-2.58847 l 0.194135,-2.6316 0.280416,-2.02763 0.754967,-3.34344 0.71183,-2.13548 1.164807,-2.54532 1.898208,-3.19244 1.509938,-1.98449 1.29423,-1.48837 1.725644,-1.6825 1.811925,-1.50994 2.653176,-1.83349 2.0492,-1.143242 1.747213,-0.86282 z"
         id="path2" /><ellipse
         style="fill:#ffffff;fill-opacity:1;stroke:#ffffff;stroke-width:4.30042;stroke-dasharray:none;stroke-opacity:1"
         id="path3"
         cx="111.03943"
         cy="126.29404"
         rx="13.725757"
         ry="14.09374" /></g></g></svg>
