<?xml version="1.0" encoding="UTF-8" standalone="no"?>
<!-- Created with Inkscape (http://www.inkscape.org/) -->

<svg
   width="297mm"
   height="210mm"
   viewBox="0 0 297 210"
   version="1.1"
   id="svg1"
   sodipodi:docname="juste_v_blanc.svg"
   inkscape:version="1.1.2 (0a00cf5339, 2022-02-04)"
   xmlns:inkscape="http://www.inkscape.org/namespaces/inkscape"
   xmlns:sodipodi="http://sodipodi.sourceforge.net/DTD/sodipodi-0.dtd"
   xmlns="http://www.w3.org/2000/svg"
   xmlns:svg="http://www.w3.org/2000/svg">
  <sodipodi:namedview
     id="namedview9"
     pagecolor="#505050"
     bordercolor="#eeeeee"
     borderopacity="1"
     inkscape:pageshadow="0"
     inkscape:pageopacity="0"
     inkscape:pagecheckerboard="0"
     inkscape:document-units="mm"
     showgrid="false"
     inkscape:zoom="0.42841616"
     inkscape:cx="612.72199"
     inkscape:cy="218.24574"
     inkscape:window-width="1920"
     inkscape:window-height="1139"
     inkscape:window-x="0"
     inkscape:window-y="30"
     inkscape:window-maximized="1"
     inkscape:current-layer="layer1" />
  <defs
     id="defs1" />
  <g
     id="layer1">
    <path
       style="fill:#ffffff;fill-opacity:1;stroke:none;stroke-width:1.23532;stroke-dasharray:none;stroke-opacity:1"
       d="m 124.18306,150.55904 c -3.00167,-0.92428 -4.83803,-4.23803 -4.21339,-7.60294 0.369,-1.99118 1.20839,-2.99518 3.44163,-4.11889 1.79519,-0.90353 2.23658,-0.98081 6.26848,-1.09865 l 4.33742,-0.12669 -4.7e-4,-2.00218 c -9.6e-4,-3.69087 -1.6848,-5.42934 -5.25853,-5.42934 -2.28756,0 -3.82507,0.62177 -5.08383,2.05534 l -0.97242,1.10688 -1.03578,-0.92539 -1.03576,-0.92538 1.16564,-1.28949 c 1.85535,-2.0536 3.70992,-2.79055 6.99874,-2.78109 3.99612,0.007 6.24709,1.14046 7.77953,3.90139 0.4482,0.80835 0.57174,2.31774 0.70635,8.64953 l 0.16313,7.67038 1.22424,0.0997 c 1.18939,0.0982 1.22423,0.1362 1.22423,1.38721 v 1.28584 h -1.58817 c -1.91001,0 -3.08895,-0.79552 -3.63613,-2.45309 -0.46246,-1.39923 -0.77604,-1.43233 -1.31135,-0.13778 -1.11654,2.69594 -5.27262,3.93431 -9.17307,2.73338 z m 6.79857,-2.80347 c 0.57489,-0.17374 1.49189,-0.82624 2.04003,-1.44992 0.93441,-1.06444 0.99617,-1.29583 0.99617,-3.77848 v -2.64455 l -3.83631,0.15838 c -5.41262,0.22284 -6.93477,1.13919 -6.93477,4.17475 0,3.42143 3.23529,4.90205 7.73567,3.54021 z m 75.98542,2.89263 c -2.98299,-0.90557 -4.84975,-2.60537 -6.33182,-5.76513 -0.76654,-1.6345 -0.84889,-2.18988 -0.84889,-5.72683 0,-3.5498 0.0791,-4.0886 0.85997,-5.75113 1.9043,-4.06122 4.7777,-5.94872 9.0969,-5.97537 4.20406,-0.0238 7.20574,1.95211 9.10434,5.99965 0.76653,1.63457 0.84889,2.1899 0.84889,5.72685 0,3.5498 -0.0791,4.08864 -0.85998,5.75114 -1.17355,2.50175 -2.89272,4.30928 -4.93623,5.18828 -2.01326,0.86615 -5.09207,1.11131 -6.93318,0.55272 z m 6.60598,-3.5634 c 2.55886,-0.53863 2.69633,-2.95927 2.69633,-7.92856 0,-4.97752 -0.51472,-6.48466 -2.70853,-7.93666 -1.14663,-0.75877 -1.65819,-0.87612 -3.81936,-0.87612 -2.16135,0 -2.67321,0.1172 -3.81954,0.87612 -0.84096,0.55653 -1.60148,1.44898 -2.08547,2.44794 -0.66993,1.38325 -0.7602,2.04237 -0.75386,5.48872 0.006,3.24268 0.12669,4.17475 0.681,5.41568 1.12605,2.50719 3.11635,3.59559 6.34023,3.467 1.69683,-0.0697 2.2589,-0.69922 3.46936,-0.95405 z m 56.68363,3.41013 c -3.6887,-1.32258 -5.96375,-4.37738 -6.64413,-8.92065 -0.89799,-5.99343 1.39844,-11.26966 5.83817,-13.4205 2.07519,-1.00537 5.76421,-0.98509 8.09708,0.0476 1.95498,0.8625 3.79118,2.73051 4.69707,4.77841 0.50997,1.15409 1.20841,4.82746 1.25275,6.58788 0.007,0.31611 -1.87579,0.40813 -8.35839,0.40813 h -8.36838 l 0.18214,2.00879 c 0.34209,3.7791 2.98235,6.15108 6.84496,6.15108 2.30134,0 4.01259,-0.78712 5.41817,-2.4922 l 0.99301,-1.20556 1.13396,0.77652 c 0.91699,0.62796 1.07378,0.88833 0.82038,1.3606 -0.60974,1.14045 -2.6987,2.95851 -4.12123,3.58771 -2.09736,0.92776 -5.70118,1.08313 -7.78571,0.33592 z m 9.40241,-14.43942 c -0.1267,-1.86103 -1.16564,-4.0506 -2.33239,-4.88103 -1.37627,-0.98034 -3.47379,-1.34286 -5.39615,-0.93283 -2.84299,0.60642 -5.06165,3.47584 -5.06767,6.55519 l -0.001,0.90448 6.44632,-0.0887 6.44634,-0.0887 z m -132.66764,14.00894 c -1.5109,-0.88008 -1.55049,-1.31609 -1.55049,-17.2567 v -15.03057 h 1.63205 1.63206 v 15.01432 15.01428 h 1.63189 1.63189 v 1.30564 1.30548 l -2.20314,-0.007 c -1.21158,-0.005 -2.4602,-0.15996 -2.77426,-0.34273 z m 22.92936,-14.98819 v -15.34064 h 1.79533 1.79503 v 6.85432 6.85438 h 7.99682 7.99683 v -6.85438 -6.85432 h 1.79502 1.79534 v 15.34064 15.34074 h -1.79534 -1.79502 v -7.01758 -7.01749 h -7.99683 -7.99682 v 7.01749 7.01758 h -1.79503 -1.79533 z m 56.14057,4.08 v -11.26067 h 1.63189 1.6319 v 1.79514 c 0,1.98864 0.38486,2.28159 1.12288,0.85491 0.67626,-1.30833 2.25494,-2.55993 3.81921,-3.0287 2.71518,-0.81342 6.67059,0.73265 7.94947,3.10734 0.35159,0.6533 0.71585,1.18022 0.81088,1.17023 0.095,-0.007 0.61133,-0.69795 1.1498,-1.52894 2.86896,-4.42781 9.72754,-3.85751 12.34073,1.02611 0.67785,1.26525 0.72061,1.80998 0.82038,10.23083 l 0.11087,8.89438 h -1.63095 -1.63094 l -0.11086,-8.4048 c -0.11087,-9.19615 -0.22648,-9.76492 -2.1292,-11.04336 -1.31134,-0.88008 -4.75521,-0.85902 -6.29983,0.038 -2.14851,1.24863 -2.28377,1.90994 -2.2844,11.16807 l -4.8e-4,8.24149 h -1.61258 -1.61193 l -0.095,-8.40477 c -0.095,-7.75438 -0.15837,-8.49311 -0.76494,-9.54708 -1.3066,-2.24855 -4.48075,-2.89179 -7.39532,-1.49885 -2.33397,1.11559 -2.37341,1.28743 -2.48697,10.88268 l -0.095,8.56797 h -1.61432 -1.61226 z m -69.07632,-12.27799 c 0.63351,-0.73866 1.36361,-1.97057 1.62477,-2.7368 0.46087,-1.35365 0.45296,-1.40289 -0.27873,-1.73622 -1.3066,-0.5958 -1.43647,-3.01471 -0.2344,-4.38321 0.71902,-0.81911 2.6995,-0.74721 3.64342,0.13145 0.67308,0.62653 0.73643,0.92111 0.5939,2.70239 -0.18213,2.27741 -1.05002,4.19672 -2.74717,6.07453 -0.98509,1.08994 -1.36678,1.29091 -2.45925,1.29091 h -1.29393 z"
       id="path3" />
    <path
       style="font-variation-settings:normal;fill:none;fill-opacity:1;stroke:#ffffff;stroke-width:5.54312;stroke-linecap:butt;stroke-linejoin:round;stroke-miterlimit:4;stroke-dasharray:none;stroke-dashoffset:0;stroke-opacity:1;stop-color:#000000"
       d="M 135.70294,100.79496 V 79.84327 h 20.95173 L 83.064191,33.749572 9.9928658,79.84327 H 30.944598 v 83.80671 h 256.443012 -0.83305"
       id="path40" />
    <path
       style="font-variation-settings:normal;display:inline;fill:#ff6600;fill-opacity:1;stroke:#ffffff;stroke-width:5.62231;stroke-linecap:butt;stroke-linejoin:round;stroke-miterlimit:4;stroke-dasharray:none;stroke-dashoffset:0;stroke-opacity:1;stop-color:#000000"
       d="M 47.116575,75.063802 H 66.173034 L 77.60675,105.5539 67.771194,132.23273 Z"
       id="path41" />
    <path
       style="font-variation-settings:normal;display:inline;fill:#ff6600;fill-opacity:1;stroke:#fefefd;stroke-width:5.62231;stroke-linecap:butt;stroke-linejoin:round;stroke-miterlimit:4;stroke-dasharray:none;stroke-dashoffset:0;stroke-opacity:1;stop-color:#000000"
       d="m 100.4745,75.063802 h 19.05646 l -12.25511,33.263608 -14.423932,39.15037 h -19.0563 z"
       id="path42"
       sodipodi:nodetypes="cccccc" />
  </g>
</svg>
